<svg width="24" height="25" viewBox="0 0 24 25" fill="none" xmlns="http://www.w3.org/2000/svg">
<g id="mdi:instagram">
<path id="Vector" d="M7.8 2.10547H16.2C19.4 2.10547 22 4.70547 22 7.90547V16.3055C22 17.8437 21.3889 19.319 20.3012 20.4067C19.2135 21.4944 17.7383 22.1055 16.2 22.1055H7.8C4.6 22.1055 2 19.5055 2 16.3055V7.90547C2 6.36721 2.61107 4.89196 3.69878 3.80425C4.78649 2.71654 6.26174 2.10547 7.8 2.10547ZM7.6 4.10547C6.64522 4.10547 5.72955 4.48475 5.05442 5.15988C4.37928 5.83502 4 6.75069 4 7.70547V16.5055C4 18.4955 5.61 20.1055 7.6 20.1055H16.4C17.3548 20.1055 18.2705 19.7262 18.9456 19.0511C19.6207 18.3759 20 17.4602 20 16.5055V7.70547C20 5.71547 18.39 4.10547 16.4 4.10547H7.6ZM17.25 5.60547C17.5815 5.60547 17.8995 5.73716 18.1339 5.97159C18.3683 6.20601 18.5 6.52395 18.5 6.85547C18.5 7.18699 18.3683 7.50493 18.1339 7.73935C17.8995 7.97377 17.5815 8.10547 17.25 8.10547C16.9185 8.10547 16.6005 7.97377 16.3661 7.73935C16.1317 7.50493 16 7.18699 16 6.85547C16 6.52395 16.1317 6.20601 16.3661 5.97159C16.6005 5.73716 16.9185 5.60547 17.25 5.60547ZM12 7.10547C13.3261 7.10547 14.5979 7.63225 15.5355 8.56993C16.4732 9.50762 17 10.7794 17 12.1055C17 13.4316 16.4732 14.7033 15.5355 15.641C14.5979 16.5787 13.3261 17.1055 12 17.1055C10.6739 17.1055 9.40215 16.5787 8.46447 15.641C7.52678 14.7033 7 13.4316 7 12.1055C7 10.7794 7.52678 9.50762 8.46447 8.56993C9.40215 7.63225 10.6739 7.10547 12 7.10547ZM12 9.10547C11.2044 9.10547 10.4413 9.42154 9.87868 9.98415C9.31607 10.5468 9 11.3098 9 12.1055C9 12.9011 9.31607 13.6642 9.87868 14.2268C10.4413 14.7894 11.2044 15.1055 12 15.1055C12.7956 15.1055 13.5587 14.7894 14.1213 14.2268C14.6839 13.6642 15 12.9011 15 12.1055C15 11.3098 14.6839 10.5468 14.1213 9.98415C13.5587 9.42154 12.7956 9.10547 12 9.10547Z" fill="white"/>
</g>
</svg>
