<svg width="20" height="11" viewBox="0 0 20 11" fill="none" xmlns="http://www.w3.org/2000/svg">
<path id="link" d="M9 10.1055H5C3.61667 10.1055 2.4375 9.61797 1.4625 8.64297C0.4875 7.66797 0 6.4888 0 5.10547C0 3.72214 0.4875 2.54297 1.4625 1.56797C2.4375 0.592969 3.61667 0.105469 5 0.105469H9V2.10547H5C4.16667 2.10547 3.45833 2.39714 2.875 2.98047C2.29167 3.5638 2 4.27214 2 5.10547C2 5.9388 2.29167 6.64714 2.875 7.23047C3.45833 7.8138 4.16667 8.10547 5 8.10547H9V10.1055ZM6 6.10547V4.10547H14V6.10547H6ZM11 10.1055V8.10547H15C15.8333 8.10547 16.5417 7.8138 17.125 7.23047C17.7083 6.64714 18 5.9388 18 5.10547C18 4.27214 17.7083 3.5638 17.125 2.98047C16.5417 2.39714 15.8333 2.10547 15 2.10547H11V0.105469H15C16.3833 0.105469 17.5625 0.592969 18.5375 1.56797C19.5125 2.54297 20 3.72214 20 5.10547C20 6.4888 19.5125 7.66797 18.5375 8.64297C17.5625 9.61797 16.3833 10.1055 15 10.1055H11Z" fill="white"/>
</svg>
