<svg width="24" height="25" viewBox="0 0 24 25" fill="none" xmlns="http://www.w3.org/2000/svg">
<g id="add_location_alt">
<mask id="mask0_2_108" style="mask-type:alpha" maskUnits="userSpaceOnUse" x="0" y="0" width="24" height="25">
<rect id="Bounding box" y="0.464844" width="24" height="24" fill="#D9D9D9"/>
</mask>
<g mask="url(#mask0_2_108)">
<path id="add_location_alt_2" d="M12 22.4648C9.31667 20.1815 7.3125 18.0607 5.9875 16.1023C4.6625 14.144 4 12.3315 4 10.6648C4 8.16484 4.80417 6.17318 6.4125 4.68984C8.02083 3.20651 9.88333 2.46484 12 2.46484H12.5C12.6667 2.46484 12.8333 2.48151 13 2.51484V4.53984C12.8333 4.50651 12.6708 4.48568 12.5125 4.47734C12.3542 4.46901 12.1833 4.46484 12 4.46484C10.3167 4.46484 8.89583 5.04401 7.7375 6.20234C6.57917 7.36068 6 8.84818 6 10.6648C6 11.8482 6.49167 13.2023 7.475 14.7273C8.45833 16.2523 9.96667 17.9482 12 19.8148C14.0333 17.9482 15.5417 16.2523 16.525 14.7273C17.5083 13.2023 18 11.8482 18 10.6648V10.4648H20V10.6648C20 12.3315 19.3375 14.144 18.0125 16.1023C16.6875 18.0607 14.6833 20.1815 12 22.4648ZM12 12.4648C12.55 12.4648 13.0208 12.269 13.4125 11.8773C13.8042 11.4857 14 11.0148 14 10.4648C14 9.91484 13.8042 9.44401 13.4125 9.05234C13.0208 8.66068 12.55 8.46484 12 8.46484C11.45 8.46484 10.9792 8.66068 10.5875 9.05234C10.1958 9.44401 10 9.91484 10 10.4648C10 11.0148 10.1958 11.4857 10.5875 11.8773C10.9792 12.269 11.45 12.4648 12 12.4648ZM18 8.46484H20V5.46484H23V3.46484H20V0.464844H18V3.46484H15V5.46484H18V8.46484Z" fill="white"/>
</g>
</g>
</svg>
