<svg width="24" height="25" viewBox="0 0 24 25" fill="none" xmlns="http://www.w3.org/2000/svg">
<g id="attach_email">
<mask id="mask0_2_117" style="mask-type:alpha" maskUnits="userSpaceOnUse" x="0" y="0" width="24" height="25">
<rect id="Bounding box" y="0.464844" width="24" height="24" fill="#D9D9D9"/>
</mask>
<g mask="url(#mask0_2_117)">
<path id="attach_email_2" d="M11 11.4648L3 6.46484V16.4648H13V18.4648H3C2.45 18.4648 1.97917 18.269 1.5875 17.8773C1.19583 17.4857 1 17.0148 1 16.4648V4.46484C1 3.91484 1.19583 3.44401 1.5875 3.05234C1.97917 2.66068 2.45 2.46484 3 2.46484H19C19.55 2.46484 20.0208 2.66068 20.4125 3.05234C20.8042 3.44401 21 3.91484 21 4.46484V9.46484H19V6.46484L11 11.4648ZM11 9.46484L19 4.46484H3L11 9.46484ZM19 22.4648C17.9 22.4648 16.9583 22.0732 16.175 21.2898C15.3917 20.5065 15 19.5648 15 18.4648V13.9648C15 13.2648 15.2417 12.6732 15.725 12.1898C16.2083 11.7065 16.8 11.4648 17.5 11.4648C18.2 11.4648 18.7917 11.7065 19.275 12.1898C19.7583 12.6732 20 13.2648 20 13.9648V18.4648H18V13.9648C18 13.8315 17.95 13.7148 17.85 13.6148C17.75 13.5148 17.6333 13.4648 17.5 13.4648C17.3667 13.4648 17.25 13.5148 17.15 13.6148C17.05 13.7148 17 13.8315 17 13.9648V18.4648C17 19.0148 17.1958 19.4857 17.5875 19.8773C17.9792 20.269 18.45 20.4648 19 20.4648C19.55 20.4648 20.0208 20.269 20.4125 19.8773C20.8042 19.4857 21 19.0148 21 18.4648V14.4648H23V18.4648C23 19.5648 22.6083 20.5065 21.825 21.2898C21.0417 22.0732 20.1 22.4648 19 22.4648ZM3 6.46484V4.46484V16.4648V6.46484Z" fill="white"/>
</g>
</g>
</svg>
