<svg width="24" height="25" viewBox="0 0 24 25" fill="none" xmlns="http://www.w3.org/2000/svg">
<g id="add_call">
<mask id="mask0_2_114" style="mask-type:alpha" maskUnits="userSpaceOnUse" x="0" y="0" width="24" height="25">
<rect id="Bounding box" y="0.214844" width="24" height="24" fill="#D9D9D9"/>
</mask>
<g mask="url(#mask0_2_114)">
<path id="add_call_2" d="M16 11.2148V8.21484H13V6.21484H16V3.21484H18V6.21484H21V8.21484H18V11.2148H16ZM19.95 21.2148C17.8667 21.2148 15.8083 20.7607 13.775 19.8523C11.7417 18.944 9.89167 17.6565 8.225 15.9898C6.55833 14.3232 5.27083 12.4732 4.3625 10.4398C3.45417 8.40651 3 6.34818 3 4.26484C3 3.96484 3.1 3.71484 3.3 3.51484C3.5 3.31484 3.75 3.21484 4.05 3.21484H8.1C8.33333 3.21484 8.54167 3.29401 8.725 3.45234C8.90833 3.61068 9.01667 3.79818 9.05 4.01484L9.7 7.51484C9.73333 7.78151 9.725 8.00651 9.675 8.18984C9.625 8.37318 9.53333 8.53151 9.4 8.66484L6.975 11.1148C7.30833 11.7315 7.70417 12.3273 8.1625 12.9023C8.62083 13.4773 9.125 14.0315 9.675 14.5648C10.1917 15.0815 10.7333 15.5607 11.3 16.0023C11.8667 16.444 12.4667 16.8482 13.1 17.2148L15.45 14.8648C15.6 14.7148 15.7958 14.6023 16.0375 14.5273C16.2792 14.4523 16.5167 14.4315 16.75 14.4648L20.2 15.1648C20.4333 15.2315 20.625 15.3523 20.775 15.5273C20.925 15.7023 21 15.8982 21 16.1148V20.1648C21 20.4648 20.9 20.7148 20.7 20.9148C20.5 21.1148 20.25 21.2148 19.95 21.2148ZM6.025 9.21484L7.675 7.56484L7.25 5.21484H5.025C5.10833 5.89818 5.225 6.57318 5.375 7.23984C5.525 7.90651 5.74167 8.56484 6.025 9.21484ZM14.975 18.1648C15.625 18.4482 16.2875 18.6732 16.9625 18.8398C17.6375 19.0065 18.3167 19.1148 19 19.1648V16.9648L16.65 16.4898L14.975 18.1648Z" fill="white"/>
</g>
</g>
</svg>
