<svg width="24" height="25" viewBox="0 0 24 25" fill="none" xmlns="http://www.w3.org/2000/svg">
<g id="ic:baseline-telegram">
<path id="Vector" d="M12 2.10547C6.48 2.10547 2 6.58547 2 12.1055C2 17.6255 6.48 22.1055 12 22.1055C17.52 22.1055 22 17.6255 22 12.1055C22 6.58547 17.52 2.10547 12 2.10547ZM16.64 8.90547C16.49 10.4855 15.84 14.3255 15.51 16.0955C15.37 16.8455 15.09 17.0955 14.83 17.1255C14.25 17.1755 13.81 16.7455 13.25 16.3755C12.37 15.7955 11.87 15.4355 11.02 14.8755C10.03 14.2255 10.67 13.8655 11.24 13.2855C11.39 13.1355 13.95 10.8055 14 10.5955C14.0069 10.5637 14.006 10.5306 13.9973 10.4993C13.9886 10.4679 13.9724 10.4391 13.95 10.4155C13.89 10.3655 13.81 10.3855 13.74 10.3955C13.65 10.4155 12.25 11.3455 9.52 13.1855C9.12 13.4555 8.76 13.5955 8.44 13.5855C8.08 13.5755 7.4 13.3855 6.89 13.2155C6.26 13.0155 5.77 12.9055 5.81 12.5555C5.83 12.3755 6.08 12.1955 6.55 12.0055C9.47 10.7355 11.41 9.89547 12.38 9.49547C15.16 8.33547 15.73 8.13547 16.11 8.13547C16.19 8.13547 16.38 8.15547 16.5 8.25547C16.6 8.33547 16.63 8.44547 16.64 8.52547C16.63 8.58547 16.65 8.76547 16.64 8.90547Z" fill="white"/>
</g>
</svg>
